<svg width="363" height="88" viewBox="0 0 363 88" fill="none" xmlns="http://www.w3.org/2000/svg">
<g filter="url(#filter0_d)">
<rect width="319" height="44" rx="20" transform="matrix(-1 0 0 1 341 22)" fill="white"/>
</g>
<rect width="163.917" height="44" rx="20" transform="matrix(-1 0 0 1 341 22)" fill="#FBAF02"/>
<path d="M213.516 49V37.625H216.875C217.88 37.625 218.771 37.849 219.547 38.2969C220.328 38.7448 220.932 39.3802 221.359 40.2031C221.786 41.026 222 41.9688 222 43.0312V43.6016C222 44.6797 221.784 45.6276 221.352 46.4453C220.924 47.263 220.312 47.8932 219.516 48.3359C218.724 48.7786 217.815 49 216.789 49H213.516ZM215.492 39.2188V47.4219H216.781C217.818 47.4219 218.612 47.099 219.164 46.4531C219.721 45.8021 220.005 44.8698 220.016 43.6562V43.0234C220.016 41.7891 219.747 40.8464 219.211 40.1953C218.674 39.5443 217.896 39.2188 216.875 39.2188H215.492ZM227.508 49.1562C226.305 49.1562 225.328 48.7786 224.578 48.0234C223.833 47.263 223.461 46.2526 223.461 44.9922V44.7578C223.461 43.9141 223.622 43.1615 223.945 42.5C224.273 41.8333 224.732 41.3151 225.32 40.9453C225.909 40.5755 226.565 40.3906 227.289 40.3906C228.44 40.3906 229.328 40.7578 229.953 41.4922C230.583 42.2266 230.898 43.2656 230.898 44.6094V45.375H225.375C225.432 46.0729 225.664 46.625 226.07 47.0312C226.482 47.4375 226.997 47.6406 227.617 47.6406C228.487 47.6406 229.195 47.2891 229.742 46.5859L230.766 47.5625C230.427 48.0677 229.974 48.4609 229.406 48.7422C228.844 49.0182 228.211 49.1562 227.508 49.1562ZM227.281 41.9141C226.76 41.9141 226.339 42.0964 226.016 42.4609C225.698 42.8255 225.495 43.3333 225.406 43.9844H229.023V43.8438C228.982 43.2083 228.812 42.7292 228.516 42.4062C228.219 42.0781 227.807 41.9141 227.281 41.9141ZM239.781 44.8594C239.781 46.1667 239.484 47.2109 238.891 47.9922C238.297 48.7682 237.5 49.1562 236.5 49.1562C235.573 49.1562 234.831 48.8516 234.273 48.2422V52.25H232.375V40.5469H234.125L234.203 41.4062C234.76 40.7292 235.518 40.3906 236.477 40.3906C237.508 40.3906 238.315 40.776 238.898 41.5469C239.487 42.3125 239.781 43.3776 239.781 44.7422V44.8594ZM237.891 44.6953C237.891 43.8516 237.721 43.1823 237.383 42.6875C237.049 42.1927 236.57 41.9453 235.945 41.9453C235.169 41.9453 234.612 42.2656 234.273 42.9062V46.6562C234.617 47.3125 235.18 47.6406 235.961 47.6406C236.565 47.6406 237.036 47.3984 237.375 46.9141C237.719 46.4245 237.891 45.6849 237.891 44.6953ZM245.117 49.1562C243.914 49.1562 242.938 48.7786 242.188 48.0234C241.443 47.263 241.07 46.2526 241.07 44.9922V44.7578C241.07 43.9141 241.232 43.1615 241.555 42.5C241.883 41.8333 242.341 41.3151 242.93 40.9453C243.518 40.5755 244.174 40.3906 244.898 40.3906C246.049 40.3906 246.938 40.7578 247.562 41.4922C248.193 42.2266 248.508 43.2656 248.508 44.6094V45.375H242.984C243.042 46.0729 243.273 46.625 243.68 47.0312C244.091 47.4375 244.607 47.6406 245.227 47.6406C246.096 47.6406 246.805 47.2891 247.352 46.5859L248.375 47.5625C248.036 48.0677 247.583 48.4609 247.016 48.7422C246.453 49.0182 245.82 49.1562 245.117 49.1562ZM244.891 41.9141C244.37 41.9141 243.948 42.0964 243.625 42.4609C243.307 42.8255 243.104 43.3333 243.016 43.9844H246.633V43.8438C246.591 43.2083 246.422 42.7292 246.125 42.4062C245.828 42.0781 245.417 41.9141 244.891 41.9141ZM251.75 40.5469L251.805 41.5234C252.43 40.7682 253.25 40.3906 254.266 40.3906C256.026 40.3906 256.922 41.3984 256.953 43.4141V49H255.055V43.5234C255.055 42.987 254.938 42.5911 254.703 42.3359C254.474 42.0755 254.096 41.9453 253.57 41.9453C252.805 41.9453 252.234 42.2917 251.859 42.9844V49H249.961V40.5469H251.75ZM258.539 44.7109C258.539 43.4089 258.841 42.3646 259.445 41.5781C260.049 40.7865 260.859 40.3906 261.875 40.3906C262.771 40.3906 263.495 40.7031 264.047 41.3281V37H265.945V49H264.227L264.133 48.125C263.565 48.8125 262.807 49.1562 261.859 49.1562C260.87 49.1562 260.068 48.7578 259.453 47.9609C258.844 47.1641 258.539 46.0807 258.539 44.7109ZM260.438 44.875C260.438 45.7344 260.602 46.4062 260.93 46.8906C261.263 47.3698 261.734 47.6094 262.344 47.6094C263.12 47.6094 263.688 47.263 264.047 46.5703V42.9609C263.698 42.2839 263.135 41.9453 262.359 41.9453C261.745 41.9453 261.271 42.1901 260.938 42.6797C260.604 43.1641 260.438 43.8958 260.438 44.875ZM271.648 49.1562C270.445 49.1562 269.469 48.7786 268.719 48.0234C267.974 47.263 267.602 46.2526 267.602 44.9922V44.7578C267.602 43.9141 267.763 43.1615 268.086 42.5C268.414 41.8333 268.872 41.3151 269.461 40.9453C270.049 40.5755 270.706 40.3906 271.43 40.3906C272.581 40.3906 273.469 40.7578 274.094 41.4922C274.724 42.2266 275.039 43.2656 275.039 44.6094V45.375H269.516C269.573 46.0729 269.805 46.625 270.211 47.0312C270.622 47.4375 271.138 47.6406 271.758 47.6406C272.628 47.6406 273.336 47.2891 273.883 46.5859L274.906 47.5625C274.568 48.0677 274.115 48.4609 273.547 48.7422C272.984 49.0182 272.352 49.1562 271.648 49.1562ZM271.422 41.9141C270.901 41.9141 270.479 42.0964 270.156 42.4609C269.839 42.8255 269.635 43.3333 269.547 43.9844H273.164V43.8438C273.122 43.2083 272.953 42.7292 272.656 42.4062C272.359 42.0781 271.948 41.9141 271.422 41.9141ZM278.281 40.5469L278.336 41.5234C278.961 40.7682 279.781 40.3906 280.797 40.3906C282.557 40.3906 283.453 41.3984 283.484 43.4141V49H281.586V43.5234C281.586 42.987 281.469 42.5911 281.234 42.3359C281.005 42.0755 280.628 41.9453 280.102 41.9453C279.336 41.9453 278.766 42.2917 278.391 42.9844V49H276.492V40.5469H278.281ZM287.805 38.4922V40.5469H289.297V41.9531H287.805V46.6719C287.805 46.9948 287.867 47.2292 287.992 47.375C288.122 47.5156 288.352 47.5859 288.68 47.5859C288.898 47.5859 289.12 47.5599 289.344 47.5078V48.9766C288.911 49.0964 288.495 49.1562 288.094 49.1562C286.635 49.1562 285.906 48.3516 285.906 46.7422V41.9531H284.516V40.5469H285.906V38.4922H287.805ZM294.477 49.1562C293.273 49.1562 292.297 48.7786 291.547 48.0234C290.802 47.263 290.43 46.2526 290.43 44.9922V44.7578C290.43 43.9141 290.591 43.1615 290.914 42.5C291.242 41.8333 291.701 41.3151 292.289 40.9453C292.878 40.5755 293.534 40.3906 294.258 40.3906C295.409 40.3906 296.297 40.7578 296.922 41.4922C297.552 42.2266 297.867 43.2656 297.867 44.6094V45.375H292.344C292.401 46.0729 292.633 46.625 293.039 47.0312C293.451 47.4375 293.966 47.6406 294.586 47.6406C295.456 47.6406 296.164 47.2891 296.711 46.5859L297.734 47.5625C297.396 48.0677 296.943 48.4609 296.375 48.7422C295.812 49.0182 295.18 49.1562 294.477 49.1562ZM294.25 41.9141C293.729 41.9141 293.307 42.0964 292.984 42.4609C292.667 42.8255 292.464 43.3333 292.375 43.9844H295.992V43.8438C295.951 43.2083 295.781 42.7292 295.484 42.4062C295.188 42.0781 294.776 41.9141 294.25 41.9141ZM304.086 46.7031C304.086 46.3646 303.945 46.1068 303.664 45.9297C303.388 45.7526 302.927 45.5964 302.281 45.4609C301.635 45.3255 301.096 45.1536 300.664 44.9453C299.716 44.487 299.242 43.8229 299.242 42.9531C299.242 42.224 299.549 41.6146 300.164 41.125C300.779 40.6354 301.56 40.3906 302.508 40.3906C303.518 40.3906 304.333 40.6406 304.953 41.1406C305.578 41.6406 305.891 42.2891 305.891 43.0859H303.992C303.992 42.7214 303.857 42.4193 303.586 42.1797C303.315 41.9349 302.956 41.8125 302.508 41.8125C302.091 41.8125 301.75 41.9089 301.484 42.1016C301.224 42.2943 301.094 42.5521 301.094 42.875C301.094 43.1667 301.216 43.3932 301.461 43.5547C301.706 43.7161 302.201 43.8802 302.945 44.0469C303.69 44.2083 304.273 44.4036 304.695 44.6328C305.122 44.8568 305.438 45.1276 305.641 45.4453C305.849 45.763 305.953 46.1484 305.953 46.6016C305.953 47.362 305.638 47.9792 305.008 48.4531C304.378 48.9219 303.552 49.1562 302.531 49.1562C301.839 49.1562 301.221 49.0312 300.68 48.7812C300.138 48.5312 299.716 48.1875 299.414 47.75C299.112 47.3125 298.961 46.8411 298.961 46.3359H300.805C300.831 46.7839 301 47.1302 301.312 47.375C301.625 47.6146 302.039 47.7344 302.555 47.7344C303.055 47.7344 303.435 47.6406 303.695 47.4531C303.956 47.2604 304.086 47.0104 304.086 46.7031Z" fill="white"/>
<path d="M81.5938 45.2969C81.4792 46.5104 81.0312 47.4583 80.25 48.1406C79.4688 48.8177 78.4297 49.1562 77.1328 49.1562C76.2266 49.1562 75.4271 48.9427 74.7344 48.5156C74.0469 48.0833 73.5156 47.4714 73.1406 46.6797C72.7656 45.888 72.5703 44.9688 72.5547 43.9219V42.8594C72.5547 41.7865 72.7448 40.8411 73.125 40.0234C73.5052 39.2057 74.0495 38.5755 74.7578 38.1328C75.4714 37.6901 76.2943 37.4688 77.2266 37.4688C78.4818 37.4688 79.4922 37.8099 80.2578 38.4922C81.0234 39.1745 81.4688 40.138 81.5938 41.3828H79.625C79.5312 40.5651 79.2917 39.9766 78.9062 39.6172C78.526 39.2526 77.9661 39.0703 77.2266 39.0703C76.3672 39.0703 75.7057 39.3854 75.2422 40.0156C74.7839 40.6406 74.5495 41.5599 74.5391 42.7734V43.7812C74.5391 45.0104 74.7578 45.9479 75.1953 46.5938C75.638 47.2396 76.2839 47.5625 77.1328 47.5625C77.9089 47.5625 78.4922 47.388 78.8828 47.0391C79.2734 46.6901 79.5208 46.1094 79.625 45.2969H81.5938ZM88.2344 49C88.151 48.8385 88.0781 48.5755 88.0156 48.2109C87.4115 48.8411 86.6719 49.1562 85.7969 49.1562C84.9479 49.1562 84.2552 48.9141 83.7188 48.4297C83.1823 47.9453 82.9141 47.3464 82.9141 46.6328C82.9141 45.7318 83.2474 45.0417 83.9141 44.5625C84.5859 44.0781 85.5443 43.8359 86.7891 43.8359H87.9531V43.2812C87.9531 42.8438 87.8307 42.4948 87.5859 42.2344C87.3411 41.9688 86.9688 41.8359 86.4688 41.8359C86.0365 41.8359 85.6823 41.9453 85.4062 42.1641C85.1302 42.3776 84.9922 42.651 84.9922 42.9844H83.0938C83.0938 42.5208 83.2474 42.0885 83.5547 41.6875C83.862 41.2812 84.2786 40.9635 84.8047 40.7344C85.3359 40.5052 85.9271 40.3906 86.5781 40.3906C87.5677 40.3906 88.3568 40.6406 88.9453 41.1406C89.5339 41.6354 89.8359 42.3333 89.8516 43.2344V47.0469C89.8516 47.8073 89.9583 48.4141 90.1719 48.8672V49H88.2344ZM86.1484 47.6328C86.5234 47.6328 86.875 47.5417 87.2031 47.3594C87.5365 47.1771 87.7865 46.9323 87.9531 46.625V45.0312H86.9297C86.2266 45.0312 85.6979 45.1536 85.3438 45.3984C84.9896 45.6432 84.8125 45.9896 84.8125 46.4375C84.8125 46.8021 84.9323 47.0938 85.1719 47.3125C85.4167 47.526 85.7422 47.6328 86.1484 47.6328ZM96.2656 42.2812C96.0156 42.2396 95.7578 42.2188 95.4922 42.2188C94.6224 42.2188 94.0365 42.5521 93.7344 43.2188V49H91.8359V40.5469H93.6484L93.6953 41.4922C94.1536 40.7578 94.7891 40.3906 95.6016 40.3906C95.8724 40.3906 96.0964 40.4271 96.2734 40.5L96.2656 42.2812ZM96.9531 44.7109C96.9531 43.4089 97.2552 42.3646 97.8594 41.5781C98.4635 40.7865 99.2734 40.3906 100.289 40.3906C101.185 40.3906 101.909 40.7031 102.461 41.3281V37H104.359V49H102.641L102.547 48.125C101.979 48.8125 101.221 49.1562 100.273 49.1562C99.2839 49.1562 98.4818 48.7578 97.8672 47.9609C97.2578 47.1641 96.9531 46.0807 96.9531 44.7109ZM98.8516 44.875C98.8516 45.7344 99.0156 46.4062 99.3438 46.8906C99.6771 47.3698 100.148 47.6094 100.758 47.6094C101.534 47.6094 102.102 47.263 102.461 46.5703V42.9609C102.112 42.2839 101.549 41.9453 100.773 41.9453C100.159 41.9453 99.6849 42.1901 99.3516 42.6797C99.0182 43.1641 98.8516 43.8958 98.8516 44.875ZM111.391 49C111.307 48.8385 111.234 48.5755 111.172 48.2109C110.568 48.8411 109.828 49.1562 108.953 49.1562C108.104 49.1562 107.411 48.9141 106.875 48.4297C106.339 47.9453 106.07 47.3464 106.07 46.6328C106.07 45.7318 106.404 45.0417 107.07 44.5625C107.742 44.0781 108.701 43.8359 109.945 43.8359H111.109V43.2812C111.109 42.8438 110.987 42.4948 110.742 42.2344C110.497 41.9688 110.125 41.8359 109.625 41.8359C109.193 41.8359 108.839 41.9453 108.562 42.1641C108.286 42.3776 108.148 42.651 108.148 42.9844H106.25C106.25 42.5208 106.404 42.0885 106.711 41.6875C107.018 41.2812 107.435 40.9635 107.961 40.7344C108.492 40.5052 109.083 40.3906 109.734 40.3906C110.724 40.3906 111.513 40.6406 112.102 41.1406C112.69 41.6354 112.992 42.3333 113.008 43.2344V47.0469C113.008 47.8073 113.115 48.4141 113.328 48.8672V49H111.391ZM109.305 47.6328C109.68 47.6328 110.031 47.5417 110.359 47.3594C110.693 47.1771 110.943 46.9323 111.109 46.625V45.0312H110.086C109.383 45.0312 108.854 45.1536 108.5 45.3984C108.146 45.6432 107.969 45.9896 107.969 46.4375C107.969 46.8021 108.089 47.0938 108.328 47.3125C108.573 47.526 108.898 47.6328 109.305 47.6328ZM110.359 37H112.523L110.359 39.3672H108.836L110.359 37ZM122.398 44.8594C122.398 46.1667 122.102 47.2109 121.508 47.9922C120.914 48.7682 120.117 49.1562 119.117 49.1562C118.19 49.1562 117.448 48.8516 116.891 48.2422V52.25H114.992V40.5469H116.742L116.82 41.4062C117.378 40.7292 118.135 40.3906 119.094 40.3906C120.125 40.3906 120.932 40.776 121.516 41.5469C122.104 42.3125 122.398 43.3776 122.398 44.7422V44.8594ZM120.508 44.6953C120.508 43.8516 120.339 43.1823 120 42.6875C119.667 42.1927 119.188 41.9453 118.562 41.9453C117.786 41.9453 117.229 42.2656 116.891 42.9062V46.6562C117.234 47.3125 117.797 47.6406 118.578 47.6406C119.182 47.6406 119.654 47.3984 119.992 46.9141C120.336 46.4245 120.508 45.6849 120.508 44.6953ZM126.031 49H124.133V40.5469H126.031V49ZM124.016 38.3516C124.016 38.0599 124.107 37.8177 124.289 37.625C124.477 37.4323 124.742 37.3359 125.086 37.3359C125.43 37.3359 125.695 37.4323 125.883 37.625C126.07 37.8177 126.164 38.0599 126.164 38.3516C126.164 38.638 126.07 38.8776 125.883 39.0703C125.695 39.2578 125.43 39.3516 125.086 39.3516C124.742 39.3516 124.477 39.2578 124.289 39.0703C124.107 38.8776 124.016 38.638 124.016 38.3516ZM127.75 44.6953C127.75 43.8672 127.914 43.1224 128.242 42.4609C128.57 41.7943 129.031 41.2839 129.625 40.9297C130.219 40.5703 130.901 40.3906 131.672 40.3906C132.812 40.3906 133.737 40.7578 134.445 41.4922C135.159 42.2266 135.544 43.2005 135.602 44.4141L135.609 44.8594C135.609 45.6927 135.448 46.4375 135.125 47.0938C134.807 47.75 134.349 48.2578 133.75 48.6172C133.156 48.9766 132.469 49.1562 131.688 49.1562C130.495 49.1562 129.539 48.7604 128.82 47.9688C128.107 47.1719 127.75 46.112 127.75 44.7891V44.6953ZM129.648 44.8594C129.648 45.7292 129.828 46.4115 130.188 46.9062C130.547 47.3958 131.047 47.6406 131.688 47.6406C132.328 47.6406 132.826 47.3906 133.18 46.8906C133.539 46.3906 133.719 45.6589 133.719 44.6953C133.719 43.8411 133.534 43.1641 133.164 42.6641C132.799 42.1641 132.302 41.9141 131.672 41.9141C131.052 41.9141 130.56 42.1615 130.195 42.6562C129.831 43.1458 129.648 43.8802 129.648 44.8594Z" fill="black"/>
<defs>
<filter id="filter0_d" x="0" y="0" width="363" height="88" filterUnits="userSpaceOnUse" color-interpolation-filters="sRGB">
<feFlood flood-opacity="0" result="BackgroundImageFix"/>
<feColorMatrix in="SourceAlpha" type="matrix" values="0 0 0 0 0 0 0 0 0 0 0 0 0 0 0 0 0 0 127 0"/>
<feOffset/>
<feGaussianBlur stdDeviation="11"/>
<feColorMatrix type="matrix" values="0 0 0 0 0 0 0 0 0 0 0 0 0 0 0 0 0 0 0.13 0"/>
<feBlend mode="normal" in2="BackgroundImageFix" result="effect1_dropShadow"/>
<feBlend mode="normal" in="SourceGraphic" in2="effect1_dropShadow" result="shape"/>
</filter>
</defs>
</svg>
